<svg width="15" height="10" viewBox="0 0 15 10" fill="none" xmlns="http://www.w3.org/2000/svg">
<path fill-rule="evenodd" clip-rule="evenodd" d="M0.329559 2.82956C2.20631 1.07441 4.72768 0 7.5 0C10.2723 0 12.7937 1.07441 14.6704 2.82956L13.2552 4.24476C11.7413 2.85108 9.72001 2 7.5 2C5.27998 2 3.25874 2.85108 1.74476 4.24476L0.329559 2.82956H0.329559ZM2.80653 5.30653C4.04812 4.18377 5.69421 3.5 7.5 3.5C9.30579 3.5 10.9519 4.18377 12.1935 5.30653L10.7767 6.72326C9.8992 5.96124 8.75346 5.5 7.5 5.5C6.24653 5.5 5.1008 5.96124 4.22326 6.72326L2.80653 5.30653ZM5.28771 7.78771C5.89065 7.29532 6.66084 7 7.5 7C8.33916 7 9.10934 7.29532 9.71229 7.78771L7.5 10L5.28771 7.78771Z" fill="white"/>
</svg>
